<mxfile host="app.diagrams.net" agent="Mozilla/5.0 (Windows NT 10.0; Win64; x64) AppleWebKit/537.36 (KHTML, like Gecko) Chrome/135.0.0.0 Safari/537.36 Edg/135.0.0.0" version="26.2.13">
  <diagram id="C5RBs43oDa-KdzZeNtuy" name="Page-1">
    <mxGraphModel dx="1917" dy="2297" grid="1" gridSize="10" guides="1" tooltips="1" connect="1" arrows="1" fold="1" page="1" pageScale="1" pageWidth="827" pageHeight="1169" math="0" shadow="0">
      <root>
        <mxCell id="WIyWlLk6GJQsqaUBKTNV-0" />
        <mxCell id="WIyWlLk6GJQsqaUBKTNV-1" parent="WIyWlLk6GJQsqaUBKTNV-0" />
        <mxCell id="-Jn-FNwRGWb72uAGuZ_4-42" value="" style="edgeStyle=orthogonalEdgeStyle;rounded=0;orthogonalLoop=1;jettySize=auto;html=1;" edge="1" parent="WIyWlLk6GJQsqaUBKTNV-1" source="-Jn-FNwRGWb72uAGuZ_4-0" target="-Jn-FNwRGWb72uAGuZ_4-11">
          <mxGeometry relative="1" as="geometry" />
        </mxCell>
        <mxCell id="-Jn-FNwRGWb72uAGuZ_4-0" value="INICIO" style="ellipse;whiteSpace=wrap;html=1;" vertex="1" parent="WIyWlLk6GJQsqaUBKTNV-1">
          <mxGeometry x="151" y="-20" width="120" height="80" as="geometry" />
        </mxCell>
        <mxCell id="-Jn-FNwRGWb72uAGuZ_4-4" value="" style="edgeStyle=orthogonalEdgeStyle;rounded=0;orthogonalLoop=1;jettySize=auto;html=1;exitX=0.5;exitY=1;exitDx=0;exitDy=0;" edge="1" parent="WIyWlLk6GJQsqaUBKTNV-1" source="-Jn-FNwRGWb72uAGuZ_4-11" target="-Jn-FNwRGWb72uAGuZ_4-3">
          <mxGeometry relative="1" as="geometry">
            <mxPoint x="213" y="280" as="sourcePoint" />
          </mxGeometry>
        </mxCell>
        <mxCell id="-Jn-FNwRGWb72uAGuZ_4-6" value="No" style="edgeStyle=orthogonalEdgeStyle;rounded=0;orthogonalLoop=1;jettySize=auto;html=1;" edge="1" parent="WIyWlLk6GJQsqaUBKTNV-1" source="-Jn-FNwRGWb72uAGuZ_4-3" target="-Jn-FNwRGWb72uAGuZ_4-5">
          <mxGeometry relative="1" as="geometry" />
        </mxCell>
        <mxCell id="-Jn-FNwRGWb72uAGuZ_4-10" value="Si" style="edgeStyle=orthogonalEdgeStyle;rounded=0;orthogonalLoop=1;jettySize=auto;html=1;entryX=0;entryY=0.5;entryDx=0;entryDy=0;" edge="1" parent="WIyWlLk6GJQsqaUBKTNV-1" source="-Jn-FNwRGWb72uAGuZ_4-3" target="-Jn-FNwRGWb72uAGuZ_4-13">
          <mxGeometry relative="1" as="geometry">
            <mxPoint x="339" y="380.0000000000001" as="targetPoint" />
          </mxGeometry>
        </mxCell>
        <mxCell id="-Jn-FNwRGWb72uAGuZ_4-3" value="Tipo boleto == Normal?" style="rhombus;whiteSpace=wrap;html=1;" vertex="1" parent="WIyWlLk6GJQsqaUBKTNV-1">
          <mxGeometry x="155" y="270" width="116" height="110" as="geometry" />
        </mxCell>
        <mxCell id="-Jn-FNwRGWb72uAGuZ_4-8" value="No" style="edgeStyle=orthogonalEdgeStyle;rounded=0;orthogonalLoop=1;jettySize=auto;html=1;" edge="1" parent="WIyWlLk6GJQsqaUBKTNV-1" source="-Jn-FNwRGWb72uAGuZ_4-5" target="-Jn-FNwRGWb72uAGuZ_4-7">
          <mxGeometry relative="1" as="geometry" />
        </mxCell>
        <mxCell id="-Jn-FNwRGWb72uAGuZ_4-19" value="Si" style="edgeStyle=orthogonalEdgeStyle;rounded=0;orthogonalLoop=1;jettySize=auto;html=1;" edge="1" parent="WIyWlLk6GJQsqaUBKTNV-1" source="-Jn-FNwRGWb72uAGuZ_4-5" target="-Jn-FNwRGWb72uAGuZ_4-18">
          <mxGeometry relative="1" as="geometry" />
        </mxCell>
        <mxCell id="-Jn-FNwRGWb72uAGuZ_4-5" value="Tipo boleto ==&lt;div&gt;&amp;nbsp;Preferencial?&lt;/div&gt;" style="rhombus;whiteSpace=wrap;html=1;" vertex="1" parent="WIyWlLk6GJQsqaUBKTNV-1">
          <mxGeometry x="150" y="510" width="126" height="120" as="geometry" />
        </mxCell>
        <mxCell id="-Jn-FNwRGWb72uAGuZ_4-26" value="Si" style="edgeStyle=orthogonalEdgeStyle;rounded=0;orthogonalLoop=1;jettySize=auto;html=1;exitX=1;exitY=0.5;exitDx=0;exitDy=0;" edge="1" parent="WIyWlLk6GJQsqaUBKTNV-1" source="-Jn-FNwRGWb72uAGuZ_4-38" target="-Jn-FNwRGWb72uAGuZ_4-25">
          <mxGeometry relative="1" as="geometry">
            <mxPoint x="450" y="800" as="sourcePoint" />
          </mxGeometry>
        </mxCell>
        <mxCell id="-Jn-FNwRGWb72uAGuZ_4-28" value="No" style="edgeStyle=orthogonalEdgeStyle;rounded=0;orthogonalLoop=1;jettySize=auto;html=1;" edge="1" parent="WIyWlLk6GJQsqaUBKTNV-1" source="-Jn-FNwRGWb72uAGuZ_4-7" target="-Jn-FNwRGWb72uAGuZ_4-27">
          <mxGeometry relative="1" as="geometry" />
        </mxCell>
        <mxCell id="-Jn-FNwRGWb72uAGuZ_4-35" value="" style="edgeStyle=orthogonalEdgeStyle;rounded=0;orthogonalLoop=1;jettySize=auto;html=1;entryX=0;entryY=0.5;entryDx=0;entryDy=0;" edge="1" parent="WIyWlLk6GJQsqaUBKTNV-1" source="-Jn-FNwRGWb72uAGuZ_4-7" target="-Jn-FNwRGWb72uAGuZ_4-38">
          <mxGeometry relative="1" as="geometry">
            <mxPoint x="351" y="800" as="targetPoint" />
          </mxGeometry>
        </mxCell>
        <mxCell id="-Jn-FNwRGWb72uAGuZ_4-7" value="Tipo boleto == Premium?" style="rhombus;whiteSpace=wrap;html=1;" vertex="1" parent="WIyWlLk6GJQsqaUBKTNV-1">
          <mxGeometry x="153" y="765" width="116.5" height="120" as="geometry" />
        </mxCell>
        <mxCell id="-Jn-FNwRGWb72uAGuZ_4-11" value="Seleccione que tipo de boleto&amp;nbsp;&lt;div&gt;quiere comprar&lt;/div&gt;" style="shape=parallelogram;perimeter=parallelogramPerimeter;whiteSpace=wrap;html=1;fixedSize=1;" vertex="1" parent="WIyWlLk6GJQsqaUBKTNV-1">
          <mxGeometry x="109.69" y="90" width="206.62" height="70" as="geometry" />
        </mxCell>
        <mxCell id="-Jn-FNwRGWb72uAGuZ_4-15" value="Si" style="edgeStyle=orthogonalEdgeStyle;rounded=0;orthogonalLoop=1;jettySize=auto;html=1;" edge="1" parent="WIyWlLk6GJQsqaUBKTNV-1" source="-Jn-FNwRGWb72uAGuZ_4-13" target="-Jn-FNwRGWb72uAGuZ_4-14">
          <mxGeometry relative="1" as="geometry" />
        </mxCell>
        <mxCell id="-Jn-FNwRGWb72uAGuZ_4-17" value="No" style="edgeStyle=orthogonalEdgeStyle;rounded=0;orthogonalLoop=1;jettySize=auto;html=1;" edge="1" parent="WIyWlLk6GJQsqaUBKTNV-1" source="-Jn-FNwRGWb72uAGuZ_4-13" target="-Jn-FNwRGWb72uAGuZ_4-16">
          <mxGeometry relative="1" as="geometry" />
        </mxCell>
        <mxCell id="-Jn-FNwRGWb72uAGuZ_4-13" value="Edad&amp;lt;12 o Edad&amp;gt;60" style="rhombus;whiteSpace=wrap;html=1;" vertex="1" parent="WIyWlLk6GJQsqaUBKTNV-1">
          <mxGeometry x="375" y="265" width="140" height="120" as="geometry" />
        </mxCell>
        <mxCell id="-Jn-FNwRGWb72uAGuZ_4-40" style="edgeStyle=orthogonalEdgeStyle;rounded=0;orthogonalLoop=1;jettySize=auto;html=1;entryX=0;entryY=0.5;entryDx=0;entryDy=0;" edge="1" parent="WIyWlLk6GJQsqaUBKTNV-1" source="-Jn-FNwRGWb72uAGuZ_4-14" target="-Jn-FNwRGWb72uAGuZ_4-44">
          <mxGeometry relative="1" as="geometry">
            <mxPoint x="750" y="325" as="targetPoint" />
          </mxGeometry>
        </mxCell>
        <mxCell id="-Jn-FNwRGWb72uAGuZ_4-14" value="&lt;div&gt;&lt;span style=&quot;background-color: transparent; color: light-dark(rgb(0, 0, 0), rgb(255, 255, 255));&quot;&gt;Valor=5-15%&lt;/span&gt;&lt;/div&gt;" style="whiteSpace=wrap;html=1;" vertex="1" parent="WIyWlLk6GJQsqaUBKTNV-1">
          <mxGeometry x="570" y="295" width="120" height="60" as="geometry" />
        </mxCell>
        <mxCell id="-Jn-FNwRGWb72uAGuZ_4-59" style="edgeStyle=orthogonalEdgeStyle;rounded=0;orthogonalLoop=1;jettySize=auto;html=1;exitX=1;exitY=0.5;exitDx=0;exitDy=0;entryX=0.5;entryY=0;entryDx=0;entryDy=0;" edge="1" parent="WIyWlLk6GJQsqaUBKTNV-1" source="-Jn-FNwRGWb72uAGuZ_4-16" target="-Jn-FNwRGWb72uAGuZ_4-24">
          <mxGeometry relative="1" as="geometry" />
        </mxCell>
        <mxCell id="-Jn-FNwRGWb72uAGuZ_4-16" value="El valor del boleto&lt;div&gt;&amp;nbsp;es $5&lt;/div&gt;" style="whiteSpace=wrap;html=1;" vertex="1" parent="WIyWlLk6GJQsqaUBKTNV-1">
          <mxGeometry x="385" y="430" width="120" height="60" as="geometry" />
        </mxCell>
        <mxCell id="-Jn-FNwRGWb72uAGuZ_4-21" value="Si" style="edgeStyle=orthogonalEdgeStyle;rounded=0;orthogonalLoop=1;jettySize=auto;html=1;" edge="1" parent="WIyWlLk6GJQsqaUBKTNV-1" source="-Jn-FNwRGWb72uAGuZ_4-18" target="-Jn-FNwRGWb72uAGuZ_4-20">
          <mxGeometry relative="1" as="geometry" />
        </mxCell>
        <mxCell id="-Jn-FNwRGWb72uAGuZ_4-23" value="No" style="edgeStyle=orthogonalEdgeStyle;rounded=0;orthogonalLoop=1;jettySize=auto;html=1;" edge="1" parent="WIyWlLk6GJQsqaUBKTNV-1" source="-Jn-FNwRGWb72uAGuZ_4-18" target="-Jn-FNwRGWb72uAGuZ_4-22">
          <mxGeometry relative="1" as="geometry" />
        </mxCell>
        <mxCell id="-Jn-FNwRGWb72uAGuZ_4-18" value="Edad&amp;lt;12 o Edad&amp;gt;60" style="rhombus;whiteSpace=wrap;html=1;" vertex="1" parent="WIyWlLk6GJQsqaUBKTNV-1">
          <mxGeometry x="379.5" y="510" width="131" height="120" as="geometry" />
        </mxCell>
        <mxCell id="-Jn-FNwRGWb72uAGuZ_4-46" value="" style="edgeStyle=orthogonalEdgeStyle;rounded=0;orthogonalLoop=1;jettySize=auto;html=1;" edge="1" parent="WIyWlLk6GJQsqaUBKTNV-1" source="-Jn-FNwRGWb72uAGuZ_4-20" target="-Jn-FNwRGWb72uAGuZ_4-45">
          <mxGeometry relative="1" as="geometry" />
        </mxCell>
        <mxCell id="-Jn-FNwRGWb72uAGuZ_4-20" value="&lt;span style=&quot;color: light-dark(rgb(0, 0, 0), rgb(255, 255, 255)); background-color: transparent;&quot;&gt;X=&lt;/span&gt;&lt;span style=&quot;background-color: transparent; color: light-dark(rgb(0, 0, 0), rgb(255, 255, 255));&quot;&gt;-15%&lt;/span&gt;" style="whiteSpace=wrap;html=1;" vertex="1" parent="WIyWlLk6GJQsqaUBKTNV-1">
          <mxGeometry x="570" y="540" width="120" height="60" as="geometry" />
        </mxCell>
        <mxCell id="-Jn-FNwRGWb72uAGuZ_4-58" style="edgeStyle=orthogonalEdgeStyle;rounded=0;orthogonalLoop=1;jettySize=auto;html=1;exitX=1;exitY=0.5;exitDx=0;exitDy=0;" edge="1" parent="WIyWlLk6GJQsqaUBKTNV-1" source="-Jn-FNwRGWb72uAGuZ_4-60">
          <mxGeometry relative="1" as="geometry">
            <mxPoint x="1020" y="900" as="targetPoint" />
          </mxGeometry>
        </mxCell>
        <mxCell id="-Jn-FNwRGWb72uAGuZ_4-22" value="Valor=&lt;span style=&quot;background-color: transparent; color: light-dark(rgb(0, 0, 0), rgb(255, 255, 255));&quot;&gt;5+25% (R)&amp;nbsp;&lt;/span&gt;" style="whiteSpace=wrap;html=1;" vertex="1" parent="WIyWlLk6GJQsqaUBKTNV-1">
          <mxGeometry x="385" y="680" width="120" height="60" as="geometry" />
        </mxCell>
        <mxCell id="-Jn-FNwRGWb72uAGuZ_4-24" value="FIN" style="ellipse;whiteSpace=wrap;html=1;" vertex="1" parent="WIyWlLk6GJQsqaUBKTNV-1">
          <mxGeometry x="960" y="900" width="120" height="80" as="geometry" />
        </mxCell>
        <mxCell id="-Jn-FNwRGWb72uAGuZ_4-30" value="" style="edgeStyle=orthogonalEdgeStyle;rounded=0;orthogonalLoop=1;jettySize=auto;html=1;" edge="1" parent="WIyWlLk6GJQsqaUBKTNV-1" source="-Jn-FNwRGWb72uAGuZ_4-25" target="-Jn-FNwRGWb72uAGuZ_4-29">
          <mxGeometry relative="1" as="geometry" />
        </mxCell>
        <mxCell id="-Jn-FNwRGWb72uAGuZ_4-33" value="Si" style="edgeLabel;html=1;align=center;verticalAlign=middle;resizable=0;points=[];" vertex="1" connectable="0" parent="-Jn-FNwRGWb72uAGuZ_4-30">
          <mxGeometry x="-0.4231" y="2" relative="1" as="geometry">
            <mxPoint as="offset" />
          </mxGeometry>
        </mxCell>
        <mxCell id="-Jn-FNwRGWb72uAGuZ_4-32" value="No" style="edgeStyle=orthogonalEdgeStyle;rounded=0;orthogonalLoop=1;jettySize=auto;html=1;" edge="1" parent="WIyWlLk6GJQsqaUBKTNV-1" source="-Jn-FNwRGWb72uAGuZ_4-25" target="-Jn-FNwRGWb72uAGuZ_4-31">
          <mxGeometry relative="1" as="geometry" />
        </mxCell>
        <mxCell id="-Jn-FNwRGWb72uAGuZ_4-25" value="Edad&amp;lt;12 o Edad&amp;gt;60" style="rhombus;whiteSpace=wrap;html=1;" vertex="1" parent="WIyWlLk6GJQsqaUBKTNV-1">
          <mxGeometry x="490" y="760" width="120" height="130" as="geometry" />
        </mxCell>
        <mxCell id="-Jn-FNwRGWb72uAGuZ_4-43" style="edgeStyle=orthogonalEdgeStyle;rounded=0;orthogonalLoop=1;jettySize=auto;html=1;exitX=1;exitY=0.5;exitDx=0;exitDy=0;entryX=0.5;entryY=1;entryDx=0;entryDy=0;" edge="1" parent="WIyWlLk6GJQsqaUBKTNV-1" source="-Jn-FNwRGWb72uAGuZ_4-27" target="-Jn-FNwRGWb72uAGuZ_4-24">
          <mxGeometry relative="1" as="geometry" />
        </mxCell>
        <mxCell id="-Jn-FNwRGWb72uAGuZ_4-27" value="No tenemos más tipos de boletos" style="whiteSpace=wrap;html=1;" vertex="1" parent="WIyWlLk6GJQsqaUBKTNV-1">
          <mxGeometry x="153" y="1000" width="120" height="60" as="geometry" />
        </mxCell>
        <mxCell id="-Jn-FNwRGWb72uAGuZ_4-49" value="" style="edgeStyle=orthogonalEdgeStyle;rounded=0;orthogonalLoop=1;jettySize=auto;html=1;" edge="1" parent="WIyWlLk6GJQsqaUBKTNV-1" source="-Jn-FNwRGWb72uAGuZ_4-29" target="-Jn-FNwRGWb72uAGuZ_4-48">
          <mxGeometry relative="1" as="geometry" />
        </mxCell>
        <mxCell id="-Jn-FNwRGWb72uAGuZ_4-29" value="&lt;span style=&quot;background-color: transparent; color: light-dark(rgb(0, 0, 0), rgb(255, 255, 255));&quot;&gt;Valor=&lt;/span&gt;&lt;div&gt;&lt;span style=&quot;background-color: transparent; color: light-dark(rgb(0, 0, 0), rgb(255, 255, 255));&quot;&gt;7,81-15%&lt;/span&gt;&lt;/div&gt;" style="whiteSpace=wrap;html=1;" vertex="1" parent="WIyWlLk6GJQsqaUBKTNV-1">
          <mxGeometry x="670" y="795" width="120" height="60" as="geometry" />
        </mxCell>
        <mxCell id="-Jn-FNwRGWb72uAGuZ_4-51" value="" style="edgeStyle=orthogonalEdgeStyle;rounded=0;orthogonalLoop=1;jettySize=auto;html=1;entryX=0;entryY=0.5;entryDx=0;entryDy=0;" edge="1" parent="WIyWlLk6GJQsqaUBKTNV-1" source="-Jn-FNwRGWb72uAGuZ_4-31" target="-Jn-FNwRGWb72uAGuZ_4-52">
          <mxGeometry relative="1" as="geometry">
            <mxPoint x="660" y="940" as="targetPoint" />
          </mxGeometry>
        </mxCell>
        <mxCell id="-Jn-FNwRGWb72uAGuZ_4-31" value="Valor=&lt;br&gt;&lt;div&gt;6,25+25%&lt;/div&gt;" style="whiteSpace=wrap;html=1;" vertex="1" parent="WIyWlLk6GJQsqaUBKTNV-1">
          <mxGeometry x="490" y="930" width="120" height="60" as="geometry" />
        </mxCell>
        <mxCell id="-Jn-FNwRGWb72uAGuZ_4-38" value="Seleccione la ubicación&amp;nbsp;&lt;div&gt;del asiento&lt;/div&gt;" style="shape=parallelogram;perimeter=parallelogramPerimeter;whiteSpace=wrap;html=1;fixedSize=1;" vertex="1" parent="WIyWlLk6GJQsqaUBKTNV-1">
          <mxGeometry x="290" y="795" width="160" height="60" as="geometry" />
        </mxCell>
        <mxCell id="-Jn-FNwRGWb72uAGuZ_4-39" value="Ingresar edad" style="shape=parallelogram;perimeter=parallelogramPerimeter;whiteSpace=wrap;html=1;fixedSize=1;" vertex="1" parent="WIyWlLk6GJQsqaUBKTNV-1">
          <mxGeometry x="123.25" y="180" width="179" height="60" as="geometry" />
        </mxCell>
        <mxCell id="-Jn-FNwRGWb72uAGuZ_4-54" style="edgeStyle=orthogonalEdgeStyle;rounded=0;orthogonalLoop=1;jettySize=auto;html=1;exitX=1;exitY=0.5;exitDx=0;exitDy=0;" edge="1" parent="WIyWlLk6GJQsqaUBKTNV-1" source="-Jn-FNwRGWb72uAGuZ_4-44" target="-Jn-FNwRGWb72uAGuZ_4-24">
          <mxGeometry relative="1" as="geometry" />
        </mxCell>
        <mxCell id="-Jn-FNwRGWb72uAGuZ_4-44" value="El precio es igual a resultado de valor" style="rounded=0;whiteSpace=wrap;html=1;" vertex="1" parent="WIyWlLk6GJQsqaUBKTNV-1">
          <mxGeometry x="790" y="295" width="120" height="60" as="geometry" />
        </mxCell>
        <mxCell id="-Jn-FNwRGWb72uAGuZ_4-55" style="edgeStyle=orthogonalEdgeStyle;rounded=0;orthogonalLoop=1;jettySize=auto;html=1;exitX=1;exitY=0.5;exitDx=0;exitDy=0;entryX=0.5;entryY=0;entryDx=0;entryDy=0;" edge="1" parent="WIyWlLk6GJQsqaUBKTNV-1" source="-Jn-FNwRGWb72uAGuZ_4-45" target="-Jn-FNwRGWb72uAGuZ_4-24">
          <mxGeometry relative="1" as="geometry" />
        </mxCell>
        <mxCell id="-Jn-FNwRGWb72uAGuZ_4-45" value="El precio es igual a resultado de valor" style="whiteSpace=wrap;html=1;" vertex="1" parent="WIyWlLk6GJQsqaUBKTNV-1">
          <mxGeometry x="790" y="540" width="120" height="60" as="geometry" />
        </mxCell>
        <mxCell id="-Jn-FNwRGWb72uAGuZ_4-56" style="edgeStyle=orthogonalEdgeStyle;rounded=0;orthogonalLoop=1;jettySize=auto;html=1;exitX=1;exitY=0.5;exitDx=0;exitDy=0;entryX=0.5;entryY=0;entryDx=0;entryDy=0;" edge="1" parent="WIyWlLk6GJQsqaUBKTNV-1" source="-Jn-FNwRGWb72uAGuZ_4-48" target="-Jn-FNwRGWb72uAGuZ_4-24">
          <mxGeometry relative="1" as="geometry">
            <mxPoint x="1130" y="890" as="targetPoint" />
          </mxGeometry>
        </mxCell>
        <mxCell id="-Jn-FNwRGWb72uAGuZ_4-48" value="El precio es igual a resultado de valor" style="whiteSpace=wrap;html=1;" vertex="1" parent="WIyWlLk6GJQsqaUBKTNV-1">
          <mxGeometry x="820" y="795" width="120" height="60" as="geometry" />
        </mxCell>
        <mxCell id="-Jn-FNwRGWb72uAGuZ_4-57" style="edgeStyle=orthogonalEdgeStyle;rounded=0;orthogonalLoop=1;jettySize=auto;html=1;exitX=1;exitY=0.5;exitDx=0;exitDy=0;entryX=0;entryY=1;entryDx=0;entryDy=0;" edge="1" parent="WIyWlLk6GJQsqaUBKTNV-1" source="-Jn-FNwRGWb72uAGuZ_4-52" target="-Jn-FNwRGWb72uAGuZ_4-24">
          <mxGeometry relative="1" as="geometry" />
        </mxCell>
        <mxCell id="-Jn-FNwRGWb72uAGuZ_4-52" value="El precio es igual a resultado de valor" style="rounded=0;whiteSpace=wrap;html=1;" vertex="1" parent="WIyWlLk6GJQsqaUBKTNV-1">
          <mxGeometry x="650" y="930" width="120" height="60" as="geometry" />
        </mxCell>
        <mxCell id="-Jn-FNwRGWb72uAGuZ_4-61" value="" style="edgeStyle=orthogonalEdgeStyle;rounded=0;orthogonalLoop=1;jettySize=auto;html=1;exitX=1;exitY=0.5;exitDx=0;exitDy=0;" edge="1" parent="WIyWlLk6GJQsqaUBKTNV-1" source="-Jn-FNwRGWb72uAGuZ_4-22" target="-Jn-FNwRGWb72uAGuZ_4-60">
          <mxGeometry relative="1" as="geometry">
            <mxPoint x="1020" y="900" as="targetPoint" />
            <mxPoint x="505" y="710" as="sourcePoint" />
          </mxGeometry>
        </mxCell>
        <mxCell id="-Jn-FNwRGWb72uAGuZ_4-60" value="El precio es igual a resultado de valor" style="whiteSpace=wrap;html=1;" vertex="1" parent="WIyWlLk6GJQsqaUBKTNV-1">
          <mxGeometry x="590" y="680" width="120" height="60" as="geometry" />
        </mxCell>
      </root>
    </mxGraphModel>
  </diagram>
</mxfile>
